<?xml version="1.0" encoding="UTF-8"?>
<svg xmlns="http://www.w3.org/2000/svg" width="114" height="104" viewBox="0 0 114 104" fill="none">
  <g filter="url(#filter0_f_28_148)">
    <path d="M73.6664 2.08712C36.6093 5.59549 14.4545 28.3068 4.34325 45.596C0.646289 51.9174 1.4616 59.7605 5.81913 65.6247C35.345 105.36 74.3903 105.575 97.6322 98.4123C104.081 96.4248 108.685 90.8419 109.995 84.1921C118.029 43.4061 100.254 17.0891 86.1191 5.59625C82.6407 2.76802 78.1258 1.66493 73.6664 2.08712Z" fill="url(#paint0_linear_28_148)"></path>
  </g>
  <path d="M55.6667 25.333C43.16 25.333 33 35.493 33 47.9997C33 60.5063 43.16 70.6663 55.6667 70.6663H57V78.6663C69.96 72.4263 78.3333 59.9997 78.3333 47.9997C78.3333 35.493 68.1733 25.333 55.6667 25.333ZM58.3333 63.9997H53V58.6663H58.3333V63.9997ZM58.3333 54.6663H53C53 45.9997 61 46.6663 61 41.333C61 38.3997 58.6 35.9997 55.6667 35.9997C52.7333 35.9997 50.3333 38.3997 50.3333 41.333H45C45 35.4397 49.7733 30.6663 55.6667 30.6663C61.56 30.6663 66.3333 35.4397 66.3333 41.333C66.3333 47.9997 58.3333 48.6663 58.3333 54.6663Z" fill="#287BDA"></path>
  <defs>
    <filter id="filter0_f_28_148" x="0" y="0" width="114" height="104" color-interpolation-filters="sRGB">
      <feFlood flood-opacity="0" result="BackgroundImageFix"></feFlood>
      <feBlend mode="normal" in="SourceGraphic" in2="BackgroundImageFix" result="shape"></feBlend>
      <feGaussianBlur stdDeviation="1" result="effect1_foregroundBlur_28_148"></feGaussianBlur>
    </filter>
    <linearGradient id="paint0_linear_28_148" x1="57" y1="2" x2="57" y2="102" gradientUnits="userSpaceOnUse">
      <stop stop-color="white" stop-opacity="0.12"></stop>
      <stop offset="1" stop-color="white" stop-opacity="0"></stop>
    </linearGradient>
  </defs>
</svg>
