<?xml version="1.0" encoding="UTF-8"?>
<svg xmlns="http://www.w3.org/2000/svg" width="117" height="98" viewBox="0 0 117 98" fill="none">
  <g opacity="0.1" filter="url(#filter0_b_8_2493)">
    <path d="M82.0765 0.153344C36.6803 -2.33753 9.80131 26.1021 0.630766 42.9342C-0.228354 44.511 -0.190534 46.4253 0.6264 48.0247C28.2198 102.046 75.9173 101.958 98.8686 94.4754C100.442 93.9623 101.678 92.7182 102.259 91.1613C119.841 44.0686 99.0556 12.4208 85.1088 1.2823C84.2483 0.595117 83.1739 0.213559 82.0765 0.153344Z" fill="url(#paint0_linear_8_2493)"></path>
  </g>
  <circle cx="93" cy="53" r="20" fill="#1565C0"></circle>
  <circle cx="93" cy="53" r="22" stroke="white" stroke-opacity="0.1" stroke-width="4"></circle>
  <circle cx="33" cy="25" r="20" fill="#A6C2FF"></circle>
  <circle cx="33" cy="25" r="22" stroke="white" stroke-opacity="0.1" stroke-width="4"></circle>
  <path d="M34.9244 55.7956C34.9479 55.2438 34.5196 54.7774 33.9679 54.7539C33.4161 54.7304 32.9497 55.1587 32.9262 55.7105L34.9244 55.7956ZM71.8549 77.0038L60.9012 73.3502L63.214 84.6632L71.8549 77.0038ZM32.9262 55.7105C32.7144 60.6858 34.044 67.4828 38.5953 72.6704C43.1938 77.9119 50.9307 81.3413 63.1616 79.7988L62.9113 77.8145C51.1937 79.2923 44.1707 75.9928 40.0987 71.3514C35.9793 66.6561 34.7277 60.4162 34.9244 55.7956L32.9262 55.7105Z" fill="#1565C0"></path>
  <defs>
    <filter id="filter0_b_8_2493" x="-4" y="-4" width="117" height="106" color-interpolation-filters="sRGB">
      <feFlood flood-opacity="0" result="BackgroundImageFix"></feFlood>
      <feGaussianBlur in="BackgroundImageFix" stdDeviation="2"></feGaussianBlur>
      <feComposite in2="SourceAlpha" operator="in" result="effect1_backgroundBlur_8_2493"></feComposite>
      <feBlend mode="normal" in="SourceGraphic" in2="effect1_backgroundBlur_8_2493" result="shape"></feBlend>
    </filter>
    <linearGradient id="paint0_linear_8_2493" x1="54.5" y1="0" x2="54.5" y2="98" gradientUnits="userSpaceOnUse">
      <stop stop-color="white"></stop>
      <stop offset="1" stop-color="white" stop-opacity="0"></stop>
    </linearGradient>
  </defs>
</svg>
